<svg xmlns="http://www.w3.org/2000/svg" xmlns:xlink="http://www.w3.org/1999/xlink" width="816" zoomAndPan="magnify" viewBox="0 0 612 197.999996" height="264" preserveAspectRatio="xMidYMid meet" version="1.0"><path fill="#f0047f" d="M 73.726562 32.242188 L 538.277344 32.242188 C 578.804688 32.242188 611.960938 65.402344 611.960938 105.929688 C 611.960938 146.457031 578.804688 179.613281 538.277344 179.613281 L 73.726562 179.613281 C 33.199219 179.613281 0.0429688 146.457031 0.0429688 105.929688 C 0.0390625 65.398438 33.199219 32.242188 73.726562 32.242188 Z M 73.726562 32.242188 " fill-opacity="1" fill-rule="evenodd"/><path fill="#d7026f" d="M 607.410156 131.347656 C 597 159.449219 569.878906 179.613281 538.273438 179.613281 L 73.726562 179.613281 C 43.867188 179.613281 18.007812 161.609375 6.460938 135.921875 C 338.660156 0 393.921875 196.339844 607.410156 131.347656 Z M 607.410156 131.347656 " fill-opacity="1" fill-rule="evenodd"/><path fill="#f0047f" d="M 449.769531 179.613281 L 73.726562 179.613281 C 59.40625 179.613281 46.011719 175.46875 34.667969 168.328125 C 249.433594 88.820312 342.492188 154.390625 449.769531 179.613281 Z M 449.769531 179.613281 " fill-opacity="1" fill-rule="evenodd"/></svg>