<svg xmlns="http://www.w3.org/2000/svg" xmlns:xlink="http://www.w3.org/1999/xlink" width="816" zoomAndPan="magnify" viewBox="0 0 612 197.999996" height="264" preserveAspectRatio="xMidYMid meet" version="1.0"><defs><clipPath id="a57e50916d"><path d="M 0 26.464844 L 612 26.464844 L 612 174 L 0 174 Z M 0 26.464844 " clip-rule="nonzero"/></clipPath><clipPath id="e00b55b7c3"><path d="M 0 26.464844 L 478 26.464844 L 478 174 L 0 174 Z M 0 26.464844 " clip-rule="nonzero"/></clipPath><clipPath id="41139fe00f"><path d="M 0 26.464844 L 378 26.464844 L 378 147 L 0 147 Z M 0 26.464844 " clip-rule="nonzero"/></clipPath></defs><g clip-path="url(#a57e50916d)"><path fill="#7ea217" d="M 73.691406 26.46875 L 538.308594 26.46875 C 578.84375 26.46875 612.003906 59.632812 612.003906 100.164062 L 612.003906 100.167969 C 612.003906 140.699219 578.839844 173.863281 538.308594 173.863281 L 73.691406 173.863281 C 33.160156 173.863281 -0.00390625 140.699219 -0.00390625 100.167969 C -0.00390625 59.632812 33.160156 26.46875 73.691406 26.46875 Z M 73.691406 26.46875 " fill-opacity="1" fill-rule="evenodd"/></g><g clip-path="url(#e00b55b7c3)"><path fill="#8ab617" d="M 73.691406 26.46875 L 477.703125 26.46875 C 453.691406 90.859375 389.96875 144.332031 305.507812 173.863281 L 73.691406 173.863281 C 33.160156 173.863281 -0.00390625 140.699219 -0.00390625 100.167969 C -0.00390625 59.632812 33.160156 26.46875 73.691406 26.46875 Z M 73.691406 26.46875 " fill-opacity="1" fill-rule="evenodd"/></g><g clip-path="url(#41139fe00f)"><path fill="#99cf16" d="M 73.691406 26.46875 L 377.324219 26.46875 C 320.746094 97.886719 210.480469 146.359375 83.726562 146.359375 C 59.28125 146.359375 35.457031 144.539062 12.507812 141.121094 C 4.613281 129.390625 -0.00390625 115.292969 -0.00390625 100.167969 C -0.00390625 59.632812 33.160156 26.46875 73.691406 26.46875 Z M 73.691406 26.46875 " fill-opacity="1" fill-rule="evenodd"/></g></svg>