<svg xmlns="http://www.w3.org/2000/svg" xmlns:xlink="http://www.w3.org/1999/xlink" width="816" zoomAndPan="magnify" viewBox="0 0 612 197.999996" height="264" preserveAspectRatio="xMidYMid meet" version="1.0"><defs><clipPath id="2942b40f9a"><path d="M 0 24.964844 L 612 24.964844 L 612 173 L 0 173 Z M 0 24.964844 " clip-rule="nonzero"/></clipPath><clipPath id="aefd37099f"><path d="M 183 24.964844 L 612 24.964844 L 612 173 L 183 173 Z M 183 24.964844 " clip-rule="nonzero"/></clipPath></defs><g clip-path="url(#2942b40f9a)"><path fill="#9d6bff" d="M 73.703125 24.996094 L 538.320312 24.996094 C 578.855469 24.996094 612.015625 58.160156 612.015625 98.695312 L 612.015625 98.699219 C 612.015625 139.234375 578.855469 172.394531 538.320312 172.394531 L 73.703125 172.394531 C 33.167969 172.394531 0.00390625 139.234375 0.00390625 98.699219 L 0.00390625 98.695312 C 0.0078125 58.160156 33.167969 24.996094 73.703125 24.996094 Z M 73.703125 24.996094 " fill-opacity="1" fill-rule="evenodd"/></g><path fill="#9057ed" d="M 589.914062 151.191406 C 576.59375 164.285156 558.359375 172.394531 538.320312 172.394531 L 73.703125 172.394531 C 42.015625 172.394531 14.835938 152.128906 4.476562 123.921875 C 33.757812 81.835938 92.574219 67.589844 155.585938 78.101562 C 222.144531 89.199219 269.46875 128.003906 337.914062 145.441406 C 412.386719 164.417969 512.679688 174.082031 589.914062 151.191406 Z M 589.914062 151.191406 " fill-opacity="1" fill-rule="evenodd"/><g clip-path="url(#aefd37099f)"><path fill="#814ceb" d="M 538.320312 24.996094 C 578.855469 24.996094 612.015625 58.160156 612.015625 98.695312 L 612.015625 98.699219 C 612.015625 139.234375 578.855469 172.394531 538.320312 172.394531 L 183.128906 172.394531 C 374.714844 153.402344 403.691406 24.996094 538.320312 24.996094 Z M 538.320312 24.996094 " fill-opacity="1" fill-rule="evenodd"/></g></svg>